<svg width="101" height="100" viewBox="0 0 101 100" fill="none" xmlns="http://www.w3.org/2000/svg">
<g clip-path="url(#clip0_1_569)">
<path d="M81.0843 55.3424C84.0325 55.3424 86.4224 52.9505 86.4224 50.0001C86.4224 47.0496 84.0325 44.6578 81.0843 44.6578C78.1361 44.6578 75.7462 47.0496 75.7462 50.0001C75.7462 52.9505 78.1361 55.3424 81.0843 55.3424Z" stroke="white" stroke-width="2.93974" stroke-miterlimit="10" stroke-linecap="round" stroke-linejoin="round"/>
<path d="M20.7877 55.3423C23.7359 55.3423 26.1258 52.9505 26.1258 50C26.1258 47.0495 23.7359 44.6577 20.7877 44.6577C17.8395 44.6577 15.4496 47.0495 15.4496 50C15.4496 52.9505 17.8395 55.3423 20.7877 55.3423Z" stroke="white" stroke-width="2.93974" stroke-miterlimit="10" stroke-linecap="round" stroke-linejoin="round"/>
<path d="M13.2276 37.9904L20.0354 31.1775M20.3844 69.1719L3.3045 52.0786C2.15733 50.9306 2.15733 49.0693 3.3045 47.9213L8.19593 43.026M70.3109 80.3582L53.0135 97.6691C51.8663 98.8172 50.0065 98.8172 48.8594 97.6691L31.5578 80.3541M90.3165 60.337L81.4885 69.1719M81.2044 30.5437L98.5684 47.9213C99.7155 49.0693 99.7155 50.9306 98.5684 52.0786L94.9128 55.7371M31.3217 19.8822L48.8594 2.33078C50.0065 1.18271 51.8663 1.18271 53.0135 2.33078L70.2633 19.5941M81.0306 55.8766V77.178C81.0306 78.8015 79.7155 80.1177 78.0932 80.1177H23.7797C22.1574 80.1177 20.8422 78.8015 20.8422 77.178V55.7372M20.8422 44.3767V22.8219C20.8422 21.1984 22.1574 19.8822 23.7797 19.8822H78.0932C79.7155 19.8822 81.0306 21.1984 81.0306 22.8219V44.1676" stroke="white" stroke-width="2.93974" stroke-miterlimit="10" stroke-linecap="round" stroke-linejoin="round"/>
<path d="M50.9379 71.958V28.042M48.8607 65.5611L35.3888 52.0787C34.2416 50.9306 34.2416 49.0694 35.3888 47.9213L48.8607 34.4389C50.0079 33.2908 51.8677 33.2908 53.0148 34.4389L66.4867 47.9213C67.6339 49.0694 67.6339 50.9306 66.4867 52.0787L53.0148 65.5611C51.8677 66.7092 50.0079 66.7092 48.8607 65.5611Z" stroke="white" stroke-width="2.93974" stroke-miterlimit="10" stroke-linecap="round" stroke-linejoin="round"/>
</g>
<defs>
<clipPath id="clip0_1_569">
<rect x="0.976532" width="99.9219" height="100" rx="20" fill="white"/>
</clipPath>
</defs>
</svg>
