<svg width="101" height="100" viewBox="0 0 101 100" fill="none" xmlns="http://www.w3.org/2000/svg">
<g clip-path="url(#clip0_1_548)">
<path d="M78.9997 81.959L64.7988 96.171C64.2194 96.7509 63.4488 97.0702 62.6295 97.0702C61.8102 97.0702 61.0396 96.7509 60.4602 96.171C59.8807 95.591 59.5616 94.8201 59.5616 93.9999C59.5616 93.1798 59.8807 92.4088 60.4602 91.8289L61.4836 90.8046C64.1052 88.181 64.1052 83.9122 61.4836 81.2886C58.8619 78.6648 54.5964 78.6648 51.9751 81.2886L50.0776 83.1874C48.1446 85.1219 45.5746 86.1872 42.841 86.1872C40.1074 86.1872 37.5374 85.1217 35.6044 83.1874C33.6715 81.2529 32.607 78.6808 32.607 75.9449C32.607 73.2092 33.6717 70.6372 35.6044 68.7027L39.9681 64.3356C40.2426 64.0609 40.3968 63.6883 40.3968 63.2998C40.3968 62.9113 40.2426 62.5387 39.9681 62.264C39.6936 61.9893 39.3213 61.835 38.9331 61.835C38.5449 61.835 38.1726 61.9893 37.8981 62.264L33.5345 66.6311C28.4028 71.7667 28.4028 80.1233 33.5345 85.2592C36.0204 87.747 39.3256 89.1172 42.8412 89.1172C46.3568 89.1172 49.6621 87.747 52.148 85.2592L54.0454 83.3604C55.5256 81.8793 57.9338 81.8793 59.4138 83.3604C60.8938 84.8416 60.8938 87.2517 59.4138 88.733L58.3904 89.7573C57.258 90.8906 56.6342 92.3973 56.6342 93.9999C56.6342 95.6026 57.2578 97.1093 58.3904 98.2426C59.5227 99.3758 61.0283 100 62.6297 100C64.2313 100 65.7368 99.376 66.8692 98.2426L81.0701 84.0306C81.3446 83.7558 81.4988 83.3833 81.4988 82.9948C81.4988 82.6063 81.3446 82.2337 81.0701 81.959C80.7955 81.6842 80.4231 81.5299 80.0349 81.5299C79.6466 81.5299 79.2743 81.6842 78.9997 81.959ZM20.3055 55.6439L3.27152 72.6912C1.19001 74.7744 1.19001 78.1638 3.27152 80.2469C4.31237 81.2886 5.67935 81.8093 7.04633 81.8093C8.41332 81.8093 9.78049 81.2886 10.8211 80.2469L27.8552 63.1996C29.9367 61.1165 29.9367 57.727 27.8552 55.6439C25.7736 53.5608 22.387 53.5608 20.3055 55.6439ZM25.7852 61.1278L8.75116 78.1751C7.81121 79.1158 6.28165 79.1158 5.34151 78.1751C4.40137 77.2345 4.40156 75.7037 5.34151 74.7628L22.3755 57.7155C22.8455 57.2452 23.463 57.01 24.0803 57.01C24.6977 57.01 25.3152 57.2452 25.7852 57.7155C26.7251 58.6564 26.7251 60.1871 25.7852 61.1278Z" fill="white"/>
<path d="M100.154 21.0094C100.154 13.6931 94.2059 7.7408 86.8953 7.7408C79.5848 7.7408 73.6373 13.6931 73.6373 21.0094C73.6361 22.7395 73.975 24.4529 74.6346 26.0521C73.731 26.5947 72.8781 27.2533 72.0999 28.0321L66.3141 33.8225C64.7847 35.353 62.2961 35.353 60.7665 33.8225C59.2371 32.2917 59.2371 29.8011 60.7665 28.2704L66.5524 22.48C69.0383 19.9921 70.4074 16.6845 70.4074 13.1659C70.4074 9.64756 69.0383 6.33974 66.5524 3.85189C61.4207 -1.28396 53.0705 -1.28396 47.9388 3.85189L25.1525 26.656C20.0209 31.7917 20.0209 40.1482 25.1525 45.2841C30.897 51.034 39.8207 49.9979 44.6422 44.4071C46.1718 42.8767 48.6602 42.8765 50.1898 44.4071C50.9306 45.1485 51.3387 46.1345 51.3387 47.183C51.3387 48.2315 50.9308 49.2175 50.1898 49.959L42.7303 57.4243C42.4558 57.699 42.3016 58.0716 42.3016 58.4601C42.3016 58.8486 42.4558 59.2212 42.7303 59.4959C43.0048 59.7706 43.3771 59.9249 43.7653 59.9249C44.1535 59.9249 44.5258 59.7706 44.8003 59.4959L52.2597 52.0306C53.5535 50.7358 54.2661 49.0142 54.2661 47.183C54.2661 45.3519 53.5535 43.6303 52.2597 42.3353C49.589 39.6625 45.2431 39.6623 42.572 42.3353C38.4888 47.2114 31.4068 47.4102 27.2225 43.2123C23.2322 39.2189 23.2322 32.7212 27.2225 28.7276L50.0088 5.9235C51.9418 3.98901 54.5118 2.92371 57.2456 2.92371C59.9792 2.92371 62.5492 3.98921 64.4822 5.9235C66.4152 7.858 67.4796 10.43 67.4796 13.1657C67.4796 15.9015 66.415 18.4735 64.4822 20.408L58.6963 26.1984C56.0254 28.8714 56.0254 33.2209 58.6963 35.8939C61.3672 38.5669 65.7131 38.5671 68.3841 35.8939L74.1699 30.1035C74.7353 29.5379 75.3645 29.04 76.0449 28.62C79.0695 33.1046 85.4372 35.5142 90.9502 33.6406C91.4076 34.8222 91.6418 36.0785 91.6407 37.3457C91.6407 40.0814 90.5761 42.6535 88.6433 44.588L67.724 65.524C66.454 66.7948 65.7547 68.4847 65.7547 70.2819C65.7547 72.0791 66.454 73.769 67.724 75.0398C68.9938 76.3108 70.6824 77.0106 72.4782 77.0106C74.2739 77.0106 75.9626 76.3108 77.2324 75.0398L81.5152 70.7538C82.0947 70.1739 82.8652 69.8545 83.6845 69.8545C84.5039 69.8545 85.2744 70.1739 85.8539 70.7538C87.0499 71.9509 87.0499 73.8987 85.8539 75.0957L83.8456 77.1057C83.5711 77.3805 83.4169 77.753 83.4169 78.1415C83.4169 78.53 83.5711 78.9026 83.8456 79.1773C84.1313 79.4635 84.506 79.6065 84.8806 79.6065C85.2551 79.6065 85.6298 79.4635 85.9156 79.1773L87.9239 77.1673C90.2614 74.8279 90.2614 71.0214 87.9239 68.682C86.7915 67.5487 85.2857 66.9245 83.6843 66.9245C82.083 66.9245 80.5774 67.5485 79.4448 68.682L75.162 72.968C74.4449 73.6856 73.4917 74.0807 72.4778 74.0807C71.4639 74.0807 70.5106 73.6856 69.7936 72.968C69.0767 72.2504 68.6819 71.2964 68.6819 70.2817C68.6819 69.267 69.0767 68.3128 69.7936 67.5954L90.7131 46.6596C93.199 44.1717 94.5681 40.8641 94.5681 37.3455C94.57 35.6633 94.2495 33.9963 93.624 32.4349C97.5283 30.1236 100.154 25.8687 100.154 21.0094ZM86.8953 31.3481C83.6246 31.3481 80.7062 29.8173 78.8121 27.4361C82.5428 26.4478 86.958 27.7488 89.4579 31.0258C88.6206 31.2402 87.7596 31.3485 86.8953 31.3481ZM92.2342 29.8572C89.1267 25.1299 82.4877 23.0052 77.3016 24.8366C76.8145 23.6195 76.5644 22.3204 76.5649 21.0094C76.5649 15.3086 81.199 10.6707 86.8953 10.6707C92.5916 10.6707 97.2259 15.3086 97.2259 21.0094C97.2259 24.7563 95.2239 28.0436 92.2342 29.8572ZM13.1534 19.6603C16.437 19.6603 19.1085 16.9867 19.1085 13.7005C19.1085 10.4144 16.437 7.7408 13.1534 7.7408C9.86981 7.7408 7.1983 10.4144 7.1983 13.7005C7.1983 16.9867 9.86981 19.6603 13.1534 19.6603ZM13.1534 10.6707C14.8227 10.6707 16.1809 12.0297 16.1809 13.7005C16.1809 15.3713 14.8229 16.7304 13.1534 16.7304C11.4839 16.7304 10.1259 15.3713 10.1259 13.7005C10.1259 12.0297 11.4841 10.6707 13.1534 10.6707Z" fill="white"/>
</g>
<defs>
<clipPath id="clip0_1_548">
<rect x="0.976562" width="99.9219" height="100" rx="20" fill="white"/>
</clipPath>
</defs>
</svg>
