<svg width="85" height="85" viewBox="0 0 85 85" fill="none" xmlns="http://www.w3.org/2000/svg">
<g opacity="0.77">
<circle cx="42.185" cy="42.185" r="42.185" transform="matrix(1 0 0 -1 0 85)" fill="url(#paint0_linear_73_196)" fill-opacity="0.2"/>
<circle cx="42.185" cy="42.185" r="41.6392" transform="matrix(1 0 0 -1 0 85)" stroke="url(#paint1_linear_73_196)" stroke-opacity="0.2" stroke-width="1.0916"/>
</g>
<ellipse cx="41.9341" cy="42.935" rx="35.9341" ry="35.935" fill="#83828A" fill-opacity="0.2"/>
<rect x="23.6039" y="25.5" width="36.4549" height="35" fill="#FB7C33"/>
<rect x="24.9059" y="26.75" width="33.851" height="32.5" fill="#261302"/>
<path d="M36.5846 46.9508L35.3657 51.5924C35.3404 51.7192 35.29 51.75 35.137 51.75H32.8774C32.7262 51.75 32.701 51.6993 32.7262 51.52L37.0941 36.1262C37.1697 35.8455 37.2219 35.6028 37.2471 34.8368C37.2471 34.7354 37.2976 34.6828 37.375 34.6828H40.5996C40.7004 34.6828 40.7527 34.7082 40.7779 34.8368L45.6787 51.5454C45.7039 51.6721 45.6787 51.75 45.5509 51.75H43.0122C42.8862 51.75 42.8088 51.7192 42.7836 51.6178L41.5143 46.9508H36.5846ZM40.8751 44.4352L39.0476 37.1603L37.2453 44.4352H40.8751ZM47.7979 35.8328C47.7979 34.8368 48.4839 34.25 49.3715 34.25C50.3113 34.25 50.9451 34.8893 50.9451 35.8328C50.9451 36.8543 50.2843 37.4157 49.3463 37.4157C48.4317 37.4157 47.7979 36.8543 47.7979 35.8328ZM47.9707 39.3517C47.9707 39.2231 48.0211 39.1724 48.149 39.1724H50.5634C50.6912 39.1724 50.7417 39.2231 50.7417 39.3517V51.5707C50.7417 51.6993 50.7164 51.75 50.5634 51.75H48.1742C48.0211 51.75 47.9707 51.6739 47.9707 51.5454V39.3517Z" fill="#FB7C33"/>
<defs>
<linearGradient id="paint0_linear_73_196" x1="42.185" y1="0" x2="42.185" y2="84.37" gradientUnits="userSpaceOnUse">
<stop stop-color="#83828A"/>
<stop offset="1" stop-color="#83828A" stop-opacity="0"/>
</linearGradient>
<linearGradient id="paint1_linear_73_196" x1="37.9987" y1="-32.8463" x2="51.7093" y2="53.8641" gradientUnits="userSpaceOnUse">
<stop stop-color="white" stop-opacity="0"/>
<stop offset="1" stop-color="#1D172B"/>
</linearGradient>
</defs>
</svg>
