<svg width="82" height="81" viewBox="0 0 82 81" fill="none" xmlns="http://www.w3.org/2000/svg">
<g opacity="0.77">
<ellipse cx="40.6531" cy="40.5" rx="40.6531" ry="40.5" transform="matrix(1 0 0 -1 0.2771 81)" fill="url(#paint0_linear_37_193)" fill-opacity="0.2"/>
<path d="M81.0374 40.5C81.0374 18.4358 63.0827 0.545799 40.9302 0.545799C18.7776 0.545799 0.822901 18.4358 0.822901 40.5C0.822901 62.5642 18.7776 80.4542 40.9302 80.4542C63.0827 80.4542 81.0374 62.5642 81.0374 40.5Z" stroke="url(#paint1_linear_37_193)" stroke-opacity="0.2" stroke-width="1.0916"/>
</g>
<path d="M75.5606 40.5C75.5606 59.5538 60.056 75 40.9302 75C21.8044 75 6.2998 59.5538 6.2998 40.5C6.2998 21.4462 21.8044 6 40.9302 6C60.056 6 75.5606 21.4462 75.5606 40.5Z" fill="white"/>
<path d="M75.5606 40.5C75.5606 59.5538 60.056 75 40.9302 75C21.8044 75 6.2998 59.5538 6.2998 40.5C6.2998 21.4462 21.8044 6 40.9302 6C60.056 6 75.5606 21.4462 75.5606 40.5Z" stroke="white"/>
<rect x="22.8623" y="23.5" width="35.1323" height="35" fill="#FB7C33"/>
<rect x="24.1169" y="24.75" width="32.6228" height="32.5" fill="#261302"/>
<path d="M35.3719 44.9508L34.1972 49.5924C34.1729 49.7192 34.1243 49.75 33.9768 49.75H31.7992C31.6535 49.75 31.6292 49.6993 31.6535 49.52L35.8629 34.1262C35.9358 33.8455 35.9861 33.6028 36.0104 32.8368C36.0104 32.7354 36.059 32.6828 36.1336 32.6828H39.2413C39.3384 32.6828 39.3887 32.7082 39.413 32.8368L44.1361 49.5454C44.1604 49.6721 44.1361 49.75 44.0129 49.75H41.5664C41.4449 49.75 41.3703 49.7192 41.346 49.6178L40.1227 44.9508H35.3719ZM39.5067 42.4352L37.7456 35.1603L36.0087 42.4352H39.5067ZM46.1784 33.8328C46.1784 32.8368 46.8395 32.25 47.6949 32.25C48.6006 32.25 49.2114 32.8893 49.2114 33.8328C49.2114 34.8543 48.5746 35.4157 47.6706 35.4157C46.7891 35.4157 46.1784 34.8543 46.1784 33.8328ZM46.3449 37.3517C46.3449 37.2231 46.3935 37.1724 46.5167 37.1724H48.8436C48.9667 37.1724 49.0153 37.2231 49.0153 37.3517V49.5707C49.0153 49.6993 48.991 49.75 48.8436 49.75H46.541C46.3935 49.75 46.3449 49.6739 46.3449 49.5454V37.3517Z" fill="#FB7C33"/>
<defs>
<linearGradient id="paint0_linear_37_193" x1="40.6531" y1="0" x2="40.6531" y2="81" gradientUnits="userSpaceOnUse">
<stop stop-color="#83828A"/>
<stop offset="1" stop-color="#83828A" stop-opacity="0"/>
</linearGradient>
<linearGradient id="paint1_linear_37_193" x1="36.8959" y1="112.534" x2="50.0117" y2="29.2722" gradientUnits="userSpaceOnUse">
<stop stop-color="white" stop-opacity="0"/>
<stop offset="1" stop-color="#1D172B"/>
</linearGradient>
</defs>
</svg>
