<svg width="165" height="165" viewBox="0 0 165 165" fill="none" xmlns="http://www.w3.org/2000/svg">
<path opacity="0.1" d="M144.861 1.05593C155.355 1.05593 163.861 9.56253 163.861 20.0559L163.861 146.169C163.861 153.371 158.056 159.228 150.854 159.292C143.561 159.356 137.614 153.462 137.614 146.169V96.6508C137.614 77.9378 114.986 68.5702 101.759 81.8074L24.1742 159.453C19.0393 164.592 10.7098 164.592 5.57499 159.453C0.445853 154.32 0.44586 146.002 5.575 140.868L83.2133 63.1691C96.4346 49.9374 87.0633 27.3257 68.3583 27.3257L18.8859 27.3257C11.5863 27.3257 5.68702 21.3739 5.75157 14.0746C5.81531 6.86605 11.6771 1.05591 18.8859 1.05591L144.861 1.05593Z" stroke="#161616" stroke-width="2"/>
</svg>
