<svg xmlns="http://www.w3.org/2000/svg" xmlns:xlink="http://www.w3.org/1999/xlink" viewBox="0 0 40.12 33.51"><defs><style>.cls-1{isolation:isolate;}.cls-2{fill:#fe255f;}.cls-3{fill:#ed0837;}.cls-4{opacity:0.31;mix-blend-mode:multiply;}.cls-5{fill:#111;}.cls-6{fill:url(#linear-gradient);}</style><linearGradient id="linear-gradient" x1="27.34" y1="33.21" x2="27.34" y2="18.87" gradientUnits="userSpaceOnUse"><stop offset="0" stop-color="#fff"/><stop offset="0.17" stop-color="#f2f2f3"/><stop offset="0.71" stop-color="#cecfd1"/><stop offset="1" stop-color="#c0c2c4"/></linearGradient></defs><title>Asset 2</title><g class="cls-1"><g id="Layer_2" data-name="Layer 2"><g id="Layer_1-2" data-name="Layer 1"><path class="cls-2" d="M7.7,32.21,25.8,20.73a5,5,0,0,0,0-8.46L7.7.79A5,5,0,0,0,0,5V28a5,5,0,0,0,7.7,4.23Z"/><path class="cls-3" d="M25.8,20.73,7.69,32.21A5,5,0,0,1,0,28V25.71A19,19,0,0,0,18.13,7.4l7.67,4.87a5,5,0,0,1,0,8.46Z"/><g class="cls-4"><path class="cls-5" d="M39.19,19.35A1.67,1.67,0,0,0,37,20.1l-4,8-4-8a1.66,1.66,0,0,0-1.49-.93H17.24a1.67,1.67,0,1,0,0,3.34h3.41v9.33a1.68,1.68,0,0,0,3.35,0V22.51h2.38l5.05,10.08a1.7,1.7,0,0,0,1.5.92,1.67,1.67,0,0,0,1.49-.92l5.52-11a1.67,1.67,0,0,0-.75-2.24Z"/></g><path class="cls-6" d="M38.69,19.05a1.67,1.67,0,0,0-2.24.75l-4,8-4-8a1.66,1.66,0,0,0-1.49-.93H16.74a1.67,1.67,0,1,0,0,3.34h3.41v9.33a1.68,1.68,0,0,0,3.35,0V22.21h2.38l5.05,10.08a1.7,1.7,0,0,0,1.5.92,1.67,1.67,0,0,0,1.49-.92l5.52-11a1.67,1.67,0,0,0-.75-2.24Z"/></g></g></g></svg>