<svg width="16" height="16" viewBox="0 0 16 16" fill="none" xmlns="http://www.w3.org/2000/svg">
<g clip-path="url(#clip0_4_624)">
<path d="M8 14.6666C11.6819 14.6666 14.6667 11.6818 14.6667 7.99992C14.6667 4.31802 11.6819 1.33325 8 1.33325C4.3181 1.33325 1.33333 4.31802 1.33333 7.99992C1.33333 11.6818 4.3181 14.6666 8 14.6666Z" stroke="white" stroke-width="2" stroke-linecap="round" stroke-linejoin="round"/>
<path d="M10 6.23592C9.64171 5.82972 9.16822 5.54226 8.64253 5.41178C8.11684 5.2813 7.56388 5.314 7.05724 5.50552C6.55059 5.69704 6.11427 6.0383 5.80634 6.48389C5.49842 6.92948 5.33348 7.45828 5.33348 7.99992C5.33348 8.54156 5.49842 9.07035 5.80634 9.51595C6.11427 9.96154 6.55059 10.3028 7.05724 10.4943C7.56388 10.6858 8.11684 10.7185 8.64253 10.5881C9.16822 10.4576 9.64171 10.1701 10 9.76392" stroke="white" stroke-width="2" stroke-linecap="round" stroke-linejoin="round"/>
</g>
<defs>
<clipPath id="clip0_4_624">
<rect width="16" height="16" fill="white"/>
</clipPath>
</defs>
</svg>
