<svg width="82" height="81" viewBox="0 0 82 81" fill="none" xmlns="http://www.w3.org/2000/svg">
<g opacity="0.77">
<ellipse cx="40.6531" cy="40.5" rx="40.6531" ry="40.5" transform="matrix(1 0 0 -1 0.207764 81)" fill="url(#paint0_linear_4_595)" fill-opacity="0.2"/>
<path d="M80.9681 40.5C80.9681 18.4358 63.0134 0.545799 40.8608 0.545799C18.7083 0.545799 0.753565 18.4358 0.753565 40.5C0.753565 62.5642 18.7083 80.4542 40.8608 80.4542C63.0134 80.4542 80.9681 62.5642 80.9681 40.5Z" stroke="url(#paint1_linear_4_595)" stroke-opacity="0.2" stroke-width="1.0916"/>
</g>
<path d="M75.4912 40.5C75.4912 59.5538 59.9867 75 40.8609 75C21.735 75 6.23047 59.5538 6.23047 40.5C6.23047 21.4462 21.735 6 40.8609 6C59.9867 6 75.4912 21.4462 75.4912 40.5Z" fill="white"/>
<path d="M75.4912 40.5C75.4912 59.5538 59.9867 75 40.8609 75C21.735 75 6.23047 59.5538 6.23047 40.5C6.23047 21.4462 21.735 6 40.8609 6C59.9867 6 75.4912 21.4462 75.4912 40.5Z" stroke="white"/>
<rect x="21.8518" y="23.5625" width="36.0106" height="35.875" fill="#32CAFA"/>
<rect x="23.1379" y="24.8438" width="33.4384" height="33.3125" fill="#021D25"/>
<path d="M29.5684 32.7994C29.5684 32.6929 29.7991 32.6111 29.9325 32.6111C30.9812 32.5579 32.52 32.5312 34.135 32.5312C38.652 32.5312 40.412 34.9995 40.412 38.1618C40.412 42.292 37.4089 44.0624 33.725 44.0624C33.1073 44.0624 32.8918 44.0357 32.4609 44.0357V50.2805C32.4609 50.4155 32.4075 50.4688 32.2721 50.4688H29.7571C29.6217 50.4688 29.5684 50.4155 29.5684 50.2805V32.7994ZM32.4609 41.4344C32.8365 41.461 33.134 41.461 33.7784 41.461C35.6871 41.461 37.4813 40.7898 37.4813 38.2169C37.4813 36.1518 36.2 35.106 34.0206 35.106C33.3761 35.106 32.7564 35.1326 32.4609 35.1592V41.4344ZM46.4887 39.5024C45.1979 39.5024 44.7669 40.147 44.7669 40.6833C44.7669 41.2728 45.0625 41.6759 46.7843 42.5601C49.3393 43.7942 50.1458 44.9732 50.1458 46.717C50.1458 49.3183 48.1552 50.4688 45.4667 50.4688C44.0424 50.4688 42.8278 50.1815 42.1299 49.7784C42.0231 49.7252 41.9945 49.6453 41.9945 49.5103V47.3597C41.9945 47.198 42.0746 47.1448 42.1833 47.2247C43.2053 47.8959 44.3913 48.1907 45.4667 48.1907C46.7576 48.1907 47.2953 47.6544 47.2953 46.9299C47.2953 46.3404 46.9196 45.8308 45.2779 44.9732C42.9651 43.8741 41.9965 42.7465 41.9965 40.8696C41.9965 38.7779 43.6362 37.201 46.4868 37.201C47.8844 37.201 48.8721 37.249 49.4098 37.4905C49.5452 37.5704 49.5719 37.7054 49.5719 37.8119V40.0386C49.5719 40.1718 49.4918 40.2535 49.3298 40.2003C48.8112 39.8935 47.7796 39.5024 46.4887 39.5024Z" fill="#32CAFA"/>
<defs>
<linearGradient id="paint0_linear_4_595" x1="40.6531" y1="0" x2="40.6531" y2="81" gradientUnits="userSpaceOnUse">
<stop stop-color="#83828A"/>
<stop offset="1" stop-color="#83828A" stop-opacity="0"/>
</linearGradient>
<linearGradient id="paint1_linear_4_595" x1="36.8266" y1="112.534" x2="49.9423" y2="29.2722" gradientUnits="userSpaceOnUse">
<stop stop-color="white" stop-opacity="0"/>
<stop offset="1" stop-color="#1D172B"/>
</linearGradient>
</defs>
</svg>
