<svg width="48" height="48" viewBox="0 0 48 48" fill="none" xmlns="http://www.w3.org/2000/svg">
<path d="M30.1947 23.1914C29.8502 22.8961 29.4213 22.7484 28.915 22.7484C28.3666 22.7484 27.9377 22.9031 27.6283 23.2195C27.326 23.5359 27.1361 23.9578 27.0518 24.4922H30.7572C30.7291 23.9227 30.5322 23.4938 30.1947 23.1914Z" fill="white"/>
<path d="M21.068 24.7102C20.8008 24.5906 20.4352 24.5273 19.957 24.5203H17.2148V27.4875H19.9219C20.407 27.4875 20.7797 27.4242 21.0469 27.2906C21.5391 27.0445 21.7781 26.5875 21.7781 25.9055C21.7781 25.3289 21.5391 24.9281 21.068 24.7102Z" fill="white"/>
<path d="M24 6C14.0578 6 6 14.0578 6 24C6 33.9422 14.0578 42 24 42C33.9422 42 42 33.9422 42 24C42 14.0578 33.9422 6 24 6ZM26.5031 18.818H31.2703V20.2031H26.5031V18.818ZM23.6273 27.8391C23.4164 28.1836 23.1562 28.4789 22.8398 28.7109C22.4883 28.9852 22.0664 29.168 21.5813 29.2734C21.0961 29.3719 20.5758 29.4211 20.0062 29.4211H15V18.2977H20.3789C21.7359 18.3187 22.6992 18.7125 23.2617 19.4859C23.5992 19.957 23.768 20.5266 23.768 21.1875C23.768 21.8625 23.5992 22.4109 23.2547 22.8258C23.0648 23.0578 22.7766 23.2688 22.4039 23.4586C22.9734 23.6695 23.4023 23.993 23.6906 24.443C23.9789 24.893 24.1266 25.4344 24.1266 26.0742C24.1266 26.7211 23.9578 27.3117 23.6273 27.8391ZM33 25.9125H27.0094C27.0445 26.7352 27.3258 27.3187 27.8672 27.6492C28.1977 27.8531 28.5914 27.9586 29.0555 27.9586C29.5406 27.9586 29.9414 27.832 30.2508 27.5789C30.4195 27.4453 30.5672 27.2555 30.6938 27.0094H32.8875C32.8312 27.4945 32.5641 27.9938 32.093 28.5C31.3547 29.3016 30.3281 29.7023 28.9992 29.7023C27.9023 29.7023 26.9391 29.3648 26.1023 28.6898C25.2656 28.0148 24.8438 26.918 24.8438 25.3992C24.8438 23.9719 25.2234 22.882 25.9758 22.1227C26.7352 21.3633 27.7125 20.9836 28.9148 20.9836C29.632 20.9836 30.2789 21.1102 30.8484 21.3703C31.425 21.6234 31.8961 22.0312 32.2688 22.5867C32.6063 23.0719 32.8242 23.6414 32.9227 24.2883C32.9859 24.6609 33.007 25.2023 33 25.9125Z" fill="white"/>
<path d="M21.1029 22.4039C21.4053 22.2211 21.5529 21.8906 21.5529 21.4266C21.5529 20.9062 21.3561 20.5687 20.9553 20.4C20.6107 20.2875 20.1748 20.2242 19.6404 20.2242H17.2217V22.6781H19.9217C20.4068 22.6852 20.7936 22.5937 21.1029 22.4039Z" fill="white"/>
</svg>
