<svg width="48" height="48" viewBox="0 0 48 48" fill="none" xmlns="http://www.w3.org/2000/svg">
<path d="M24 6C14.0578 6 6 14.0578 6 24C6 33.9422 14.0578 42 24 42C33.9422 42 42 33.9422 42 24C42 14.0578 33.9422 6 24 6ZM18.9656 31.5305H15.457V20.3016H18.9656V31.5305ZM17.1164 18.8953H17.0883C15.8156 18.8953 14.993 18.0375 14.993 16.9477C14.993 15.8367 15.8437 15 17.1375 15C18.4312 15 19.2258 15.8367 19.2539 16.9477C19.2609 18.0305 18.4383 18.8953 17.1164 18.8953ZM33 31.5305H29.0203V25.7227C29.0203 24.2039 28.4016 23.1633 27.0305 23.1633C25.9828 23.1633 25.3992 23.8664 25.132 24.5414C25.0336 24.7805 25.0477 25.118 25.0477 25.4625V31.5305H21.1031C21.1031 31.5305 21.1523 21.2367 21.1031 20.3016H25.0477V22.0664C25.2797 21.293 26.5383 20.1961 28.5492 20.1961C31.0453 20.1961 33 21.8133 33 25.2867V31.5305Z" fill="white"/>
</svg>
