<svg width="48" height="48" viewBox="0 0 48 48" fill="none" xmlns="http://www.w3.org/2000/svg">
<path d="M24 6C14.0578 6 6 14.0578 6 24C6 33.9422 14.0578 42 24 42C33.9422 42 42 33.9422 42 24C42 14.0578 33.9422 6 24 6ZM27.9727 20.9484L27.7688 23.6414H25.0055V32.993H21.518V23.6414H19.6547V20.9484H21.518V19.1414C21.518 18.3469 21.5391 17.1164 22.1156 16.35C22.7273 15.5414 23.5641 14.993 25.0055 14.993C27.3539 14.993 28.3383 15.3305 28.3383 15.3305L27.8742 18.0867C27.8742 18.0867 27.1008 17.8617 26.3766 17.8617C25.6523 17.8617 25.0055 18.1219 25.0055 18.8461V20.9484H27.9727Z" fill="white"/>
</svg>
