<svg width="85" height="85" viewBox="0 0 85 85" fill="none" xmlns="http://www.w3.org/2000/svg">
<g opacity="0.77">
<circle cx="42.185" cy="42.185" r="42.185" transform="matrix(1 0 0 -1 0 85)" fill="url(#paint0_linear_4_484)" fill-opacity="0.2"/>
<circle cx="42.185" cy="42.185" r="41.6392" transform="matrix(1 0 0 -1 0 85)" stroke="url(#paint1_linear_4_484)" stroke-opacity="0.2" stroke-width="1.0916"/>
</g>
<ellipse cx="41.9341" cy="42.935" rx="35.9341" ry="35.935" fill="#83828A" fill-opacity="0.2"/>
<rect x="22.2094" y="25.293" width="37.3663" height="37.3672" fill="#32CAFA"/>
<rect x="23.5439" y="26.6275" width="34.6973" height="34.6981" fill="#021D25"/>
<path d="M30.2165 34.9141C30.2165 34.8032 30.4559 34.718 30.5944 34.718C31.6826 34.6625 33.2792 34.6348 34.955 34.6348C39.6421 34.6348 41.4683 37.2057 41.4683 40.4995C41.4683 44.8015 38.3522 46.6455 34.5297 46.6455C33.8886 46.6455 33.665 46.6178 33.2179 46.6178V53.1223C33.2179 53.2629 33.1625 53.3184 33.022 53.3184H30.4124C30.2719 53.3184 30.2165 53.2629 30.2165 53.1223V34.9141ZM33.2179 43.9083C33.6077 43.936 33.9163 43.936 34.5851 43.936C36.5656 43.936 38.4273 43.2368 38.4273 40.557C38.4273 38.406 37.0978 37.3166 34.8363 37.3166C34.1676 37.3166 33.5246 37.3443 33.2179 37.3721V43.9083ZM47.7739 41.8959C46.4344 41.8959 45.9873 42.5674 45.9873 43.1259C45.9873 43.7399 46.2939 44.1598 48.0805 45.0808C50.7317 46.3663 51.5686 47.5943 51.5686 49.4105C51.5686 52.1201 49.5031 53.3184 46.7134 53.3184C45.2354 53.3184 43.9751 53.0192 43.251 52.5993C43.1402 52.5439 43.1105 52.4607 43.1105 52.3201V50.08C43.1105 49.9117 43.1936 49.8562 43.3064 49.9394C44.3668 50.6386 45.5975 50.9456 46.7134 50.9456C48.0528 50.9456 48.6108 50.387 48.6108 49.6324C48.6108 49.0184 48.221 48.4876 46.5175 47.5943C44.1176 46.4495 43.1125 45.2749 43.1125 43.32C43.1125 41.1413 44.814 39.4988 47.7719 39.4988C49.2221 39.4988 50.247 39.5488 50.8049 39.8004C50.9454 39.8836 50.9731 40.0242 50.9731 40.1351V42.4545C50.9731 42.5931 50.89 42.6783 50.7218 42.6228C50.1838 42.3033 49.1133 41.8959 47.7739 41.8959Z" fill="#32CAFA"/>
<defs>
<linearGradient id="paint0_linear_4_484" x1="42.185" y1="0" x2="42.185" y2="84.37" gradientUnits="userSpaceOnUse">
<stop stop-color="#83828A"/>
<stop offset="1" stop-color="#83828A" stop-opacity="0"/>
</linearGradient>
<linearGradient id="paint1_linear_4_484" x1="37.9987" y1="-32.8463" x2="51.7093" y2="53.8641" gradientUnits="userSpaceOnUse">
<stop stop-color="white" stop-opacity="0"/>
<stop offset="1" stop-color="#1D172B"/>
</linearGradient>
</defs>
</svg>
