<svg width="42" height="41" viewBox="0 0 42 41" fill="none" xmlns="http://www.w3.org/2000/svg">
<g id="Frame">
<g id="photoshop">
<rect id="frame" x="2.85181" y="2.5625" width="36.0106" height="35.875" fill="#32CAFA"/>
<rect id="bg" x="4.13794" y="3.84375" width="33.4384" height="33.3125" fill="#021D25"/>
<path id="photoshop_2" d="M10.5684 11.7994C10.5684 11.6929 10.7991 11.6111 10.9325 11.6111C11.9812 11.5579 13.52 11.5312 15.135 11.5312C19.652 11.5312 21.412 13.9995 21.412 17.1618C21.412 21.292 18.4089 23.0624 14.725 23.0624C14.1073 23.0624 13.8918 23.0357 13.4609 23.0357V29.2805C13.4609 29.4155 13.4075 29.4688 13.2721 29.4688H10.7571C10.6217 29.4688 10.5684 29.4155 10.5684 29.2805V11.7994ZM13.4609 20.4344C13.8365 20.461 14.134 20.461 14.7784 20.461C16.6871 20.461 18.4813 19.7898 18.4813 17.2169C18.4813 15.1518 17.2 14.106 15.0206 14.106C14.3761 14.106 13.7564 14.1326 13.4609 14.1592V20.4344ZM27.4887 18.5024C26.1979 18.5024 25.7669 19.147 25.7669 19.6833C25.7669 20.2728 26.0625 20.6759 27.7843 21.5601C30.3393 22.7942 31.1458 23.9732 31.1458 25.717C31.1458 28.3183 29.1552 29.4688 26.4667 29.4688C25.0424 29.4688 23.8278 29.1815 23.1299 28.7784C23.0231 28.7252 22.9945 28.6453 22.9945 28.5103V26.3597C22.9945 26.198 23.0746 26.1448 23.1833 26.2247C24.2053 26.8959 25.3913 27.1907 26.4667 27.1907C27.7576 27.1907 28.2953 26.6544 28.2953 25.9299C28.2953 25.3404 27.9196 24.8308 26.2779 23.9732C23.9651 22.8741 22.9965 21.7465 22.9965 19.8696C22.9965 17.7779 24.6362 16.201 27.4868 16.201C28.8844 16.201 29.8721 16.249 30.4098 16.4905C30.5452 16.5704 30.5719 16.7054 30.5719 16.8119V19.0386C30.5719 19.1718 30.4918 19.2535 30.3298 19.2003C29.8112 18.8935 28.7796 18.5024 27.4887 18.5024Z" fill="#32CAFA"/>
</g>
</g>
</svg>
