<svg width="101" height="100" viewBox="0 0 101 100" fill="none" xmlns="http://www.w3.org/2000/svg">
<g clip-path="url(#clip0_1_806)">
<path d="M46.0482 21.4101C46.5867 14.6334 44.5183 7.68809 39.8435 2.20551C39.7767 2.12735 39.6944 2.06388 39.6018 2.01907C39.5092 1.97426 39.4084 1.94909 39.3057 1.94513C39.203 1.94117 39.1005 1.95852 39.0048 1.99607C38.9091 2.03362 38.8221 2.09057 38.7495 2.16335L33.4039 7.51308C33.2746 7.64292 33.1976 7.81593 33.1876 7.99903C33.1777 8.18213 33.2356 8.36245 33.3502 8.50552C38.7761 15.3184 38.3386 25.2704 32.0374 31.5766C25.7362 37.8828 15.7918 38.3208 8.98425 32.8907C8.84129 32.776 8.66111 32.718 8.47816 32.728C8.2952 32.7379 8.12233 32.8149 7.99259 32.9444L2.64706 38.2943C2.57434 38.3671 2.51744 38.4541 2.47991 38.5499C2.44239 38.6457 2.42506 38.7482 2.42902 38.851C2.43297 38.9538 2.45813 39.0547 2.5029 39.1474C2.54767 39.24 2.61109 39.3223 2.68919 39.3893C13.0442 48.2327 28.6217 47.7556 38.4125 37.9571C41.3631 35.0041 43.4678 31.5252 44.7267 27.8219M80.4304 63.4215C84.7936 63.0007 89.2858 64.23 92.8957 67.1097C93.0387 67.2244 93.2188 67.2823 93.4018 67.2724C93.5847 67.2625 93.7576 67.1854 93.8874 67.0559L99.2329 61.7062C99.3056 61.6335 99.3625 61.5465 99.4 61.4507C99.4376 61.3549 99.4549 61.2523 99.4509 61.1495C99.447 61.0467 99.4218 60.9458 99.3771 60.8532C99.3323 60.7605 99.2689 60.6782 99.1908 60.6113C88.8357 51.7679 73.2583 52.245 63.4675 62.0434C53.6767 71.8419 53.2 87.4317 62.0364 97.7948C62.1033 97.873 62.1856 97.9365 62.2781 97.9813C62.3707 98.0261 62.4715 98.0512 62.5743 98.0552C62.677 98.0592 62.7794 98.0418 62.8752 98.0043C62.9709 97.9667 63.0578 97.9098 63.1305 97.837L68.476 92.4873C68.6054 92.3574 68.6824 92.1844 68.6923 92.0013C68.7022 91.8182 68.6443 91.6379 68.5297 91.4948C63.1038 84.682 63.5413 74.7299 69.8425 68.4237C71.0252 67.238 72.3732 66.2298 73.8445 65.4307M63.1305 2.16335L68.476 7.51308C68.6054 7.64292 68.6824 7.81593 68.6923 7.99903C68.7022 8.18213 68.6443 8.36245 68.5297 8.50552C63.1038 15.3184 63.5413 25.2704 69.8425 31.5766C76.1438 37.8828 86.0882 38.3206 92.8957 32.8905C93.0387 32.7758 93.2188 32.7178 93.4018 32.7278C93.5847 32.7377 93.7576 32.8147 93.8874 32.9442L99.2329 38.294C99.3056 38.3667 99.3625 38.4537 99.4 38.5495C99.4376 38.6453 99.4549 38.7478 99.4509 38.8506C99.447 38.9535 99.4218 39.0543 99.3771 39.147C99.3323 39.2396 99.2689 39.322 99.1908 39.3889C88.8357 48.2323 73.2583 47.7552 63.4675 37.9567C53.6767 28.1582 53.2 12.5685 62.0364 2.20531C62.1033 2.1272 62.1856 2.06376 62.2782 2.01899C62.3708 1.97422 62.4716 1.94907 62.5743 1.94513C62.677 1.94119 62.7795 1.95854 62.8752 1.99609C62.9709 2.03364 63.0578 2.09059 63.1305 2.16335ZM38.7495 97.837L33.4039 92.4873C33.2746 92.3574 33.1976 92.1844 33.1876 92.0013C33.1777 91.8182 33.2356 91.6379 33.3502 91.4948C38.7761 84.682 38.3386 74.7299 32.0374 68.4237C25.7362 62.1175 15.7918 61.6795 8.98425 67.1097C8.84129 67.2244 8.66111 67.2823 8.47816 67.2724C8.2952 67.2625 8.12233 67.1854 7.99259 67.0559L2.64706 61.7062C2.57434 61.6335 2.51744 61.5465 2.47991 61.4507C2.44239 61.3549 2.42506 61.2523 2.42902 61.1495C2.43297 61.0467 2.45813 60.9458 2.5029 60.8532C2.54767 60.7605 2.61109 60.6782 2.68919 60.6113C13.0442 51.7679 28.6217 52.245 38.4125 62.0434C48.2033 71.8419 48.68 87.4317 39.8435 97.7948C39.7767 97.873 39.6944 97.9365 39.6018 97.9813C39.5092 98.0261 39.4084 98.0512 39.3057 98.0552C39.203 98.0592 39.1005 98.0418 39.0048 98.0043C38.9091 97.9667 38.8221 97.9098 38.7495 97.837Z" stroke="#7051EF" stroke-width="2.90074" stroke-miterlimit="10" stroke-linecap="round" stroke-linejoin="round"/>
<path d="M50.9398 58.6043C55.688 58.6043 59.5372 54.7521 59.5372 50.0002C59.5372 45.2482 55.688 41.396 50.9398 41.396C46.1916 41.396 42.3424 45.2482 42.3424 50.0002C42.3424 54.7521 46.1916 58.6043 50.9398 58.6043Z" stroke="#7051EF" stroke-width="2.90074" stroke-miterlimit="10" stroke-linecap="round" stroke-linejoin="round"/>
<path d="M80.9585 25.9732C84.316 25.9732 87.0377 23.2493 87.0377 19.8892C87.0377 16.5291 84.316 13.8052 80.9585 13.8052C77.601 13.8052 74.8793 16.5291 74.8793 19.8892C74.8793 23.2493 77.601 25.9732 80.9585 25.9732Z" stroke="#7051EF" stroke-width="2.90074" stroke-miterlimit="10" stroke-linecap="round" stroke-linejoin="round"/>
<path d="M80.9585 86.1951C84.316 86.1951 87.0377 83.4712 87.0377 80.1111C87.0377 76.751 84.316 74.0271 80.9585 74.0271C77.601 74.0271 74.8793 76.751 74.8793 80.1111C74.8793 83.4712 77.601 86.1951 80.9585 86.1951Z" stroke="#7051EF" stroke-width="2.90074" stroke-miterlimit="10" stroke-linecap="round" stroke-linejoin="round"/>
<path d="M21.0447 26.168C24.4021 26.168 27.1239 23.4441 27.1239 20.084C27.1239 16.7239 24.4021 14 21.0447 14C17.6872 14 14.9655 16.7239 14.9655 20.084C14.9655 23.4441 17.6872 26.168 21.0447 26.168Z" stroke="#7051EF" stroke-width="2.90074" stroke-miterlimit="10" stroke-linecap="round" stroke-linejoin="round"/>
<path d="M20.9198 86.1951C24.2773 86.1951 26.999 83.4712 26.999 80.1111C26.999 76.751 24.2773 74.0271 20.9198 74.0271C17.5623 74.0271 14.8406 76.751 14.8406 80.1111C14.8406 83.4712 17.5623 86.1951 20.9198 86.1951Z" stroke="#7051EF" stroke-width="2.90074" stroke-miterlimit="10" stroke-linecap="round" stroke-linejoin="round"/>
</g>
<defs>
<clipPath id="clip0_1_806">
<rect x="0.97644" width="99.9214" height="100" rx="20" fill="white"/>
</clipPath>
</defs>
</svg>
