<svg width="101" height="100" viewBox="0 0 101 100" fill="none" xmlns="http://www.w3.org/2000/svg">
<g clip-path="url(#clip0_1_818)">
<path d="M81.0839 55.3424C84.0321 55.3424 86.422 52.9505 86.422 50.0001C86.422 47.0496 84.0321 44.6578 81.0839 44.6578C78.1358 44.6578 75.7458 47.0496 75.7458 50.0001C75.7458 52.9505 78.1358 55.3424 81.0839 55.3424Z" stroke="black" stroke-width="2.93974" stroke-miterlimit="10" stroke-linecap="round" stroke-linejoin="round"/>
<path d="M20.7876 55.3423C23.7357 55.3423 26.1256 52.9505 26.1256 50C26.1256 47.0495 23.7357 44.6577 20.7876 44.6577C17.8394 44.6577 15.4495 47.0495 15.4495 50C15.4495 52.9505 17.8394 55.3423 20.7876 55.3423Z" stroke="black" stroke-width="2.93974" stroke-miterlimit="10" stroke-linecap="round" stroke-linejoin="round"/>
<path d="M13.2275 37.9904L20.0353 31.1775M20.3842 69.1719L3.30446 52.0786C2.1573 50.9306 2.1573 49.0693 3.30446 47.9213L8.19587 43.026M70.3106 80.3582L53.0132 97.6691C51.866 98.8172 50.0063 98.8172 48.8591 97.6691L31.5576 80.3541M90.316 60.337L81.4881 69.1719M81.2039 30.5437L98.5679 47.9213C99.715 49.0693 99.715 50.9306 98.5679 52.0786L94.9123 55.7371M31.3215 19.8822L48.8591 2.33078C50.0063 1.18271 51.866 1.18271 53.0132 2.33078L70.263 19.5941M81.0302 55.8766V77.178C81.0302 78.8015 79.715 80.1177 78.0928 80.1177H23.7795C22.1573 80.1177 20.8421 78.8015 20.8421 77.178V55.7372M20.8421 44.3767V22.8219C20.8421 21.1984 22.1573 19.8822 23.7795 19.8822H78.0928C79.715 19.8822 81.0302 21.1984 81.0302 22.8219V44.1676" stroke="black" stroke-width="2.93974" stroke-miterlimit="10" stroke-linecap="round" stroke-linejoin="round"/>
<path d="M50.9376 71.958V28.042M48.8604 65.5611L35.3886 52.0787C34.2414 50.9306 34.2414 49.0694 35.3886 47.9213L48.8604 34.4389C50.0076 33.2908 51.8674 33.2908 53.0145 34.4389L66.4864 47.9213C67.6335 49.0694 67.6335 50.9306 66.4864 52.0787L53.0145 65.5611C51.8674 66.7092 50.0076 66.7092 48.8604 65.5611Z" stroke="black" stroke-width="2.93974" stroke-miterlimit="10" stroke-linecap="round" stroke-linejoin="round"/>
</g>
<defs>
<clipPath id="clip0_1_818">
<rect x="0.97644" width="99.9214" height="100" rx="20" fill="white"/>
</clipPath>
</defs>
</svg>
