<svg width="101" height="100" viewBox="0 0 101 100" fill="none" xmlns="http://www.w3.org/2000/svg">
<g clip-path="url(#clip0_1_797)">
<path d="M78.9991 81.959L64.7983 96.171C64.2189 96.7509 63.4483 97.0702 62.629 97.0702C61.8097 97.0702 61.0391 96.7509 60.4597 96.171C59.8802 95.591 59.5611 94.8201 59.5611 93.9999C59.5611 93.1798 59.8802 92.4088 60.4597 91.8289L61.4832 90.8046C64.1047 88.181 64.1047 83.9122 61.4832 81.2886C58.8614 78.6648 54.596 78.6648 51.9746 81.2886L50.0772 83.1874C48.1442 85.1219 45.5742 86.1872 42.8406 86.1872C40.1071 86.1872 37.5371 85.1217 35.6041 83.1874C33.6711 81.2529 32.6067 78.6808 32.6067 75.9449C32.6067 73.2092 33.6713 70.6372 35.6041 68.7027L39.9677 64.3356C40.2422 64.0609 40.3964 63.6883 40.3964 63.2998C40.3964 62.9113 40.2422 62.5387 39.9677 62.264C39.6932 61.9893 39.3209 61.835 38.9327 61.835C38.5445 61.835 38.1722 61.9893 37.8977 62.264L33.5341 66.6311C28.4025 71.7667 28.4025 80.1233 33.5341 85.2592C36.02 87.747 39.3252 89.1172 42.8408 89.1172C46.3564 89.1172 49.6617 87.747 52.1475 85.2592L54.045 83.3604C55.5252 81.8793 57.9334 81.8793 59.4134 83.3604C60.8933 84.8416 60.8933 87.2517 59.4134 88.733L58.3899 89.7573C57.2575 90.8906 56.6337 92.3973 56.6337 93.9999C56.6337 95.6026 57.2573 97.1093 58.3899 98.2426C59.5223 99.3758 61.0278 100 62.6292 100C64.2308 100 65.7363 99.376 66.8687 98.2426L81.0695 84.0306C81.344 83.7558 81.4982 83.3833 81.4982 82.9948C81.4982 82.6063 81.344 82.2337 81.0695 81.959C80.7949 81.6842 80.4226 81.5299 80.0343 81.5299C79.6461 81.5299 79.2737 81.6842 78.9991 81.959ZM20.3052 55.6439L3.27133 72.6912C1.18983 74.7744 1.18983 78.1638 3.27133 80.2469C4.31217 81.2886 5.67915 81.8093 7.04612 81.8093C8.4131 81.8093 9.78027 81.2886 10.8209 80.2469L27.8548 63.1996C29.9363 61.1165 29.9363 57.727 27.8548 55.6439C25.7733 53.5608 22.3867 53.5608 20.3052 55.6439ZM25.7849 61.1278L8.75094 78.1751C7.811 79.1158 6.28145 79.1158 5.34131 78.1751C4.40117 77.2345 4.40137 75.7037 5.34131 74.7628L22.3752 57.7155C22.8452 57.2452 23.4627 57.01 24.08 57.01C24.6974 57.01 25.3149 57.2452 25.7849 57.7155C26.7248 58.6564 26.7248 60.1871 25.7849 61.1278Z" fill="black"/>
<path d="M100.153 21.0094C100.153 13.6931 94.2051 7.7408 86.8946 7.7408C79.5841 7.7408 73.6367 13.6931 73.6367 21.0094C73.6355 22.7395 73.9743 24.4529 74.634 26.0521C73.7303 26.5947 72.8774 27.2533 72.0993 28.0321L66.3135 33.8225C64.7841 35.353 62.2955 35.353 60.7659 33.8225C59.2366 32.2917 59.2366 29.8011 60.7659 28.2704L66.5518 22.48C69.0377 19.9921 70.4068 16.6845 70.4068 13.1659C70.4068 9.64756 69.0377 6.33974 66.5518 3.85189C61.4201 -1.28396 53.07 -1.28396 47.9383 3.85189L25.1521 26.656C20.0205 31.7917 20.0205 40.1482 25.1521 45.2841C30.8966 51.034 39.8202 49.9979 44.6417 44.4071C46.1713 42.8767 48.6597 42.8765 50.1892 44.4071C50.9301 45.1485 51.3382 46.1345 51.3382 47.183C51.3382 48.2315 50.9303 49.2175 50.1892 49.959L42.7298 57.4243C42.4553 57.699 42.3011 58.0716 42.3011 58.4601C42.3011 58.8486 42.4553 59.2212 42.7298 59.4959C43.0043 59.7706 43.3766 59.9249 43.7648 59.9249C44.153 59.9249 44.5253 59.7706 44.7998 59.4959L52.2592 52.0306C53.553 50.7358 54.2656 49.0142 54.2656 47.183C54.2656 45.3519 53.553 43.6303 52.2592 42.3353C49.5885 39.6625 45.2426 39.6623 42.5715 42.3353C38.4884 47.2114 31.4064 47.4102 27.2221 43.2123C23.2319 39.2189 23.2319 32.7212 27.2221 28.7276L50.0083 5.9235C51.9413 3.98901 54.5113 2.92371 57.245 2.92371C59.9786 2.92371 62.5486 3.98921 64.4816 5.9235C66.4146 7.858 67.479 10.43 67.479 13.1657C67.479 15.9015 66.4144 18.4735 64.4816 20.408L58.6957 26.1984C56.0248 28.8714 56.0248 33.2209 58.6957 35.8939C61.3667 38.5669 65.7125 38.5671 68.3834 35.8939L74.1693 30.1035C74.7347 29.5379 75.3639 29.04 76.0443 28.62C79.0688 33.1046 85.4365 35.5142 90.9495 33.6406C91.4069 34.8222 91.641 36.0785 91.64 37.3457C91.64 40.0814 90.5753 42.6535 88.6426 44.588L67.7234 65.524C66.4534 66.7948 65.7541 68.4847 65.7541 70.2819C65.7541 72.0791 66.4534 73.769 67.7234 75.0398C68.9932 76.3108 70.6818 77.0106 72.4775 77.0106C74.2733 77.0106 75.9619 76.3108 77.2317 75.0398L81.5145 70.7538C82.094 70.1739 82.8645 69.8545 83.6839 69.8545C84.5032 69.8545 85.2737 70.1739 85.8532 70.7538C87.0492 71.9509 87.0492 73.8987 85.8532 75.0957L83.8449 77.1057C83.5704 77.3805 83.4162 77.753 83.4162 78.1415C83.4162 78.53 83.5704 78.9026 83.8449 79.1773C84.1306 79.4635 84.5053 79.6065 84.8799 79.6065C85.2544 79.6065 85.6291 79.4635 85.9148 79.1773L87.9231 77.1673C90.2607 74.8279 90.2607 71.0214 87.9231 68.682C86.7908 67.5487 85.285 66.9245 83.6837 66.9245C82.0823 66.9245 80.5767 67.5485 79.4442 68.682L75.1613 72.968C74.4443 73.6856 73.4911 74.0807 72.4771 74.0807C71.4632 74.0807 70.51 73.6856 69.793 72.968C69.0761 72.2504 68.6813 71.2964 68.6813 70.2817C68.6813 69.267 69.0761 68.3128 69.793 67.5954L90.7123 46.6596C93.1982 44.1717 94.5674 40.8641 94.5674 37.3455C94.5692 35.6633 94.2487 33.9963 93.6233 32.4349C97.5275 30.1236 100.153 25.8687 100.153 21.0094ZM86.8946 31.3481C83.6239 31.3481 80.7055 29.8173 78.8114 27.4361C82.5421 26.4478 86.9573 27.7488 89.4572 31.0258C88.6199 31.2402 87.7589 31.3485 86.8946 31.3481ZM92.2335 29.8572C89.126 25.1299 82.4871 23.0052 77.301 24.8366C76.8138 23.6195 76.5637 22.3204 76.5642 21.0094C76.5642 15.3086 81.1984 10.6707 86.8946 10.6707C92.5909 10.6707 97.2252 15.3086 97.2252 21.0094C97.2252 24.7563 95.2231 28.0436 92.2335 29.8572ZM13.153 19.6603C16.4366 19.6603 19.1081 16.9867 19.1081 13.7005C19.1081 10.4144 16.4366 7.7408 13.153 7.7408C9.8695 7.7408 7.198 10.4144 7.198 13.7005C7.198 16.9867 9.8695 19.6603 13.153 19.6603ZM13.153 10.6707C14.8223 10.6707 16.1805 12.0297 16.1805 13.7005C16.1805 15.3713 14.8225 16.7304 13.153 16.7304C11.4836 16.7304 10.1256 15.3713 10.1256 13.7005C10.1256 12.0297 11.4838 10.6707 13.153 10.6707Z" fill="black"/>
</g>
<defs>
<clipPath id="clip0_1_797">
<rect x="0.976318" width="99.9214" height="100" rx="20" fill="white"/>
</clipPath>
</defs>
</svg>
