<svg xmlns="http://www.w3.org/2000/svg" viewBox="0 0 47.49 34.79"><defs><style>.cls-1{opacity:0.99;}.cls-2{fill:#ed0837;}</style></defs><title>Asset 1</title><g id="Layer_2" data-name="Layer 2"><g id="Layer_1-2" data-name="Layer 1"><g class="cls-1"><path class="cls-2" d="M28,30.57a4.22,4.22,0,1,1-4.22-4.21A4.22,4.22,0,0,1,28,30.57Z"/><path class="cls-2" d="M23.74,17.52a13,13,0,0,0-11,6.09,1.3,1.3,0,0,0,.17,1.62l2,2a1.3,1.3,0,0,0,2.07-.34,7.75,7.75,0,0,1,13.63,0,1.3,1.3,0,0,0,2.07.34l2-2a1.29,1.29,0,0,0,.18-1.62A13.05,13.05,0,0,0,23.74,17.52Z"/><path class="cls-2" d="M2.29,14.63a1.29,1.29,0,0,0,1.9-.08,25.25,25.25,0,0,1,39.1,0,1.3,1.3,0,0,0,1.91.08l1.9-1.9A1.3,1.3,0,0,0,47.2,11,30.52,30.52,0,0,0,.29,11a1.31,1.31,0,0,0,.09,1.74Z"/><path class="cls-2" d="M23.74,8.58A22,22,0,0,0,6.38,17.09a1.31,1.31,0,0,0,.1,1.73l1.93,1.93a1.29,1.29,0,0,0,1.95-.15,16.66,16.66,0,0,1,26.77,0,1.29,1.29,0,0,0,1.95.15L41,18.82a1.3,1.3,0,0,0,.09-1.73A21.94,21.94,0,0,0,23.74,8.58Z"/></g></g></g></svg>