<svg width="82" height="81" viewBox="0 0 82 81" fill="none" xmlns="http://www.w3.org/2000/svg">
<g opacity="0.77">
<ellipse cx="40.6531" cy="40.5" rx="40.6531" ry="40.5" transform="matrix(1 0 0 -1 0.347046 81)" fill="url(#paint0_linear_37_194)" fill-opacity="0.2"/>
<path d="M81.1074 40.5C81.1074 18.4358 63.1527 0.545799 41.0001 0.545799C18.8475 0.545799 0.892847 18.4358 0.892847 40.5C0.892847 62.5642 18.8475 80.4542 41.0001 80.4542C63.1527 80.4542 81.1074 62.5642 81.1074 40.5Z" stroke="url(#paint1_linear_37_194)" stroke-opacity="0.2" stroke-width="1.0916"/>
</g>
<path d="M75.6305 40.5C75.6305 59.5538 60.126 75 41.0001 75C21.8743 75 6.36975 59.5538 6.36975 40.5C6.36975 21.4462 21.8743 6 41.0001 6C60.126 6 75.6305 21.4462 75.6305 40.5Z" fill="white"/>
<path d="M75.6305 40.5C75.6305 59.5538 60.126 75 41.0001 75C21.8743 75 6.36975 59.5538 6.36975 40.5C6.36975 21.4462 21.8743 6 41.0001 6C60.126 6 75.6305 21.4462 75.6305 40.5Z" stroke="white"/>
<rect x="22.932" y="23.5" width="35.1323" height="35" fill="#FF26BE"/>
<rect x="24.1868" y="24.75" width="32.6228" height="32.5" fill="#2E001F"/>
<path d="M41.2167 49.5083L36.9426 40.9965L41.0246 32.4755C41.1015 32.3466 41.0553 32.25 40.9323 32.25H38.4561C38.3078 32.25 38.2446 32.3498 38.1792 32.4594L35.3492 38.9025L32.4424 32.4433C32.3808 32.2983 32.3193 32.2661 32.1655 32.2661H29.5201C29.4278 32.2661 29.3355 32.3628 29.4278 32.4916L33.5036 40.9965L29.2508 49.5244C29.1739 49.621 29.1893 49.7499 29.3431 49.7499H31.8809C32.0039 49.7499 32.0808 49.7016 32.1577 49.5727L35.1493 42.8972L38.1253 49.5566C38.2022 49.7177 38.2791 49.7499 38.4483 49.7499H41.1244C41.2475 49.7499 41.2936 49.6371 41.2167 49.5083Z" fill="#FF26BE"/>
<path fill-rule="evenodd" clip-rule="evenodd" d="M48.1764 36.6631C44.3928 36.6631 42.0089 39.5947 42.0089 43.3478C42.0089 47.7291 44.363 49.766 47.7005 49.7499C48.9925 49.7499 50.3757 49.5815 51.6677 48.9372C51.76 48.8889 51.7907 48.8567 51.7907 48.76C51.7138 48.164 51.7138 47.6164 51.7138 47.1815V32.3946C51.7138 32.314 51.6831 32.2657 51.56 32.2657H49.1299C49.053 32.2657 48.9761 32.3301 48.9761 32.4268V36.6953C48.6685 36.6631 48.4993 36.6631 48.1764 36.6631ZM48.0841 39.0632C48.4532 39.0632 48.7608 39.1276 48.9761 39.2243V47.1976C48.6839 47.3264 48.284 47.3748 47.9149 47.3748C46.1769 47.3748 44.7927 46.1828 44.7927 43.219C44.7927 40.6256 46.1462 39.0632 48.0841 39.0632Z" fill="#FF26BE"/>
<defs>
<linearGradient id="paint0_linear_37_194" x1="40.6531" y1="0" x2="40.6531" y2="81" gradientUnits="userSpaceOnUse">
<stop stop-color="#83828A"/>
<stop offset="1" stop-color="#83828A" stop-opacity="0"/>
</linearGradient>
<linearGradient id="paint1_linear_37_194" x1="36.9658" y1="112.534" x2="50.0816" y2="29.2722" gradientUnits="userSpaceOnUse">
<stop stop-color="white" stop-opacity="0"/>
<stop offset="1" stop-color="#1D172B"/>
</linearGradient>
</defs>
</svg>
